<svg width="1233" height="489" viewBox="0 0 1233 489" fill="none" xmlns="http://www.w3.org/2000/svg">
<path fill-rule="evenodd" clip-rule="evenodd" d="M25.2594 0H50.5187V50.2885H0V0H25.2594ZM1206.76 278.712H1232.02V329H1181.5V278.712H1206.76Z" fill="white"/>
<path fill-rule="evenodd" clip-rule="evenodd" d="M343.314 137.054C343.314 95.9731 320.901 70.1206 283.545 70.1206C257.93 70.1206 240.498 80.0366 228.757 92.7858C218.796 79.3283 201.719 69.7664 180.018 69.7664C159.739 69.7664 143.018 77.5576 134.124 88.8902V74.0161H83.605V254.984H133.768V138.47C136.97 123.242 149.066 115.097 162.229 115.097C179.662 115.097 187.844 127.846 187.844 147.324V254.984H238.719V138.47C241.921 123.242 253.661 115.097 266.824 115.097C284.257 115.097 292.795 127.846 292.795 147.324V254.984H343.314V137.054ZM0 254.984H50.5187V74.0161H25.2594H0V254.984ZM426.207 329H375.689V74.0161H426.207V88.8902C434.39 79.3283 452.178 69.7664 471.745 69.7664C524.754 69.7664 554.639 113.326 554.639 164.323C554.639 215.32 524.399 258.525 471.745 258.525C452.178 258.525 434.39 249.318 426.207 239.402V329ZM460.361 215.32C445.775 215.32 432.256 206.82 426.208 194.425V134.575C432.256 122.534 445.419 113.68 460.361 113.68C487.399 113.68 503.765 135.637 503.765 164.677C503.765 193.363 487.755 215.32 460.361 215.32ZM674.532 217.799C647.957 217.799 626.322 205.503 622.282 176.364H738.925V160.073C738.925 106.597 711.887 70.1205 658.878 70.1205C609.426 70.1205 573.494 109.431 573.494 166.094C573.494 223.465 611.561 259.234 666.705 259.234C691.253 259.234 711.531 254.276 726.473 243.297V201.862C708.685 213.195 694.454 217.799 674.532 217.799ZM692.676 143.428H624.013C629.706 120.763 643.936 110.139 660.657 110.139C680.58 110.139 691.609 123.95 692.676 143.428ZM876.606 123.596C869.847 119.701 860.597 117.576 851.347 117.576C834.27 117.576 820.395 126.429 816.838 143.074V254.984H766.319V74.0161H816.838V91.7234C824.665 78.62 839.607 69.7664 857.395 69.7664C865.933 69.7664 873.76 71.5371 876.606 72.9537V123.596ZM886.568 74.0161L955.231 254.984H1003.97L1072.99 74.0161H1022.11L981.202 194.071L939.221 74.0161H886.568ZM1181.85 142.012C1181.85 124.659 1166.91 113.68 1141.3 113.68C1123.15 113.68 1106.08 118.992 1091.84 128.2V84.9946C1105.01 76.8492 1128.49 70.1205 1152.32 70.1205C1202.49 70.1205 1232.37 95.6189 1232.37 139.887V254.984H1181.85V245.422C1175.81 251.442 1158.02 258.525 1138.09 258.525C1101.45 258.525 1070.85 237.631 1070.85 199.737C1070.85 165.385 1101.45 142.012 1141.3 142.012C1157.31 142.012 1174.74 147.324 1181.85 152.636V142.012ZM1149.83 176.718C1164.07 176.718 1177.23 183.093 1181.85 192.654V205.404C1177.58 215.32 1164.07 221.34 1149.83 221.34C1134.18 221.34 1117.82 214.966 1117.82 199.029C1117.82 183.447 1133.83 176.718 1149.83 176.718Z" fill="white"/>
<path d="M312.356 465.301C300.059 465.301 290.784 458.586 290.784 445.912C290.784 431.391 302.745 427.656 315.251 426.313C326.625 425.096 331.199 424.886 331.199 420.522V420.27C331.199 413.933 327.338 410.324 320.287 410.324C312.859 410.324 308.579 414.101 307.068 418.507L292.883 416.493C296.24 404.742 306.648 398.699 320.204 398.699C332.5 398.699 346.391 403.819 346.391 420.857V464H331.787V455.145H331.283C328.513 460.559 322.47 465.301 312.356 465.301ZM316.301 454.138C325.449 454.138 331.241 448.052 331.241 440.876V433.28C329.269 434.875 321.295 435.882 317.308 436.427C310.509 437.393 305.431 439.827 305.431 445.66C305.431 451.242 309.963 454.138 316.301 454.138ZM375.762 391.102V378.051H444.337V391.102H417.771V464H402.327V391.102H375.762ZM466.02 426.229V464H450.828V378.051H465.684V410.491H466.44C469.42 403.189 475.715 398.699 485.619 398.699C499.007 398.699 507.82 407.386 507.82 422.956V464H492.628V425.306C492.628 416.619 487.927 411.541 479.953 411.541C471.812 411.541 466.02 416.912 466.02 426.229ZM535.798 465.301C523.502 465.301 514.227 458.586 514.227 445.912C514.227 431.391 526.188 427.656 538.694 426.313C550.067 425.096 554.642 424.886 554.642 420.522V420.27C554.642 413.933 550.781 410.324 543.73 410.324C536.302 410.324 532.021 414.101 530.51 418.507L516.325 416.493C519.683 404.742 530.091 398.699 543.646 398.699C555.943 398.699 569.834 403.819 569.834 420.857V464H555.229V455.145H554.726C551.956 460.559 545.912 465.301 535.798 465.301ZM539.743 454.138C548.892 454.138 554.684 448.052 554.684 440.876V433.28C552.711 434.875 544.737 435.882 540.75 436.427C533.952 437.393 528.874 439.827 528.874 445.66C528.874 451.242 533.406 454.138 539.743 454.138ZM594.245 378.051V464H579.053V378.051H594.245ZM632.348 465.259C612.917 465.259 601.041 452.375 601.041 432.147C601.041 412.254 613.085 398.699 631.551 398.699C647.415 398.699 661.012 408.645 661.012 431.265V435.924H616.107C616.233 446.961 622.738 453.424 632.558 453.424C639.105 453.424 644.141 450.57 646.198 445.115L660.383 446.709C657.697 457.915 647.373 465.259 632.348 465.259ZM616.149 425.684H646.449C646.366 416.912 640.49 410.533 631.761 410.533C622.696 410.533 616.611 417.458 616.149 425.684ZM718.756 416.577L704.907 418.088C703.732 413.849 700.039 410.03 693.03 410.03C686.693 410.03 681.867 413.051 681.909 417.416C681.867 421.151 684.469 423.417 691.016 424.886L702.011 427.236C714.182 429.88 720.099 435.504 720.141 444.695C720.099 456.907 708.726 465.259 692.61 465.259C676.789 465.259 666.842 458.25 664.954 446.416L679.768 444.989C681.069 450.78 685.602 453.802 692.568 453.802C699.787 453.802 704.571 450.486 704.571 446.08C704.571 442.429 701.801 440.037 695.884 438.736L684.888 436.427C672.508 433.867 666.716 427.656 666.758 418.255C666.716 406.337 677.292 398.699 692.82 398.699C707.929 398.699 716.658 405.665 718.756 416.577ZM777.987 465.259C758.724 465.259 747.099 451.536 747.099 432.021C747.099 412.338 759.017 398.699 777.903 398.699C793.641 398.699 804.552 407.889 805.601 421.865H791.081C789.905 415.653 785.415 410.953 778.113 410.953C768.754 410.953 762.501 418.759 762.501 431.769C762.501 444.947 768.628 452.879 778.113 452.879C784.785 452.879 789.78 448.892 791.081 441.967H805.601C804.51 455.648 794.186 465.259 777.987 465.259ZM840.137 465.259C821.252 465.259 809.249 451.955 809.249 432.021C809.249 412.044 821.252 398.699 840.137 398.699C859.023 398.699 871.025 412.044 871.025 432.021C871.025 451.955 859.023 465.259 840.137 465.259ZM840.221 453.088C850.503 453.088 855.623 443.772 855.623 431.979C855.623 420.186 850.503 410.743 840.221 410.743C829.771 410.743 824.651 420.186 824.651 431.979C824.651 443.772 829.771 453.088 840.221 453.088ZM877.863 464V399.538H892.383V410.491H893.139C895.825 403.147 902.288 398.699 910.933 398.699C919.62 398.699 925.874 403.189 928.35 410.491H929.021C931.875 403.315 939.009 398.699 948.368 398.699C960.203 398.699 968.513 406.337 968.513 420.731V464H953.278V423.082C953.278 415.108 948.41 411.499 942.283 411.499C934.939 411.499 930.616 416.535 930.616 423.795V464H915.717V422.452C915.717 415.821 911.311 411.499 904.89 411.499C898.343 411.499 893.055 416.87 893.055 424.802V464H877.863ZM977.868 488.173V399.538H992.808V410.198H993.69C995.998 405.539 1000.74 398.699 1012.11 398.699C1027.01 398.699 1038.72 410.366 1038.72 431.853C1038.72 453.088 1027.35 465.133 1012.16 465.133C1001.08 465.133 996.082 458.544 993.69 453.844H993.06V488.173H977.868ZM992.766 431.769C992.766 444.275 998.222 452.669 1007.92 452.669C1017.95 452.669 1023.23 443.856 1023.23 431.769C1023.23 419.766 1018.03 411.163 1007.92 411.163C998.138 411.163 992.766 419.263 992.766 431.769ZM1064.22 465.301C1051.93 465.301 1042.65 458.586 1042.65 445.912C1042.65 431.391 1054.61 427.656 1067.12 426.313C1078.49 425.096 1083.07 424.886 1083.07 420.522V420.27C1083.07 413.933 1079.21 410.324 1072.16 410.324C1064.73 410.324 1060.45 414.101 1058.94 418.507L1044.75 416.493C1048.11 404.742 1058.52 398.699 1072.07 398.699C1084.37 398.699 1098.26 403.819 1098.26 420.857V464H1083.65V455.145H1083.15C1080.38 460.559 1074.34 465.301 1064.22 465.301ZM1068.17 454.138C1077.32 454.138 1083.11 448.052 1083.11 440.876V433.28C1081.14 434.875 1073.16 435.882 1069.18 436.427C1062.38 437.393 1057.3 439.827 1057.3 445.66C1057.3 451.242 1061.83 454.138 1068.17 454.138ZM1122.67 426.229V464H1107.48V399.538H1122V410.491H1122.75C1125.69 403.315 1132.32 398.699 1141.98 398.699C1155.28 398.699 1164.09 407.512 1164.05 422.956V464H1148.86V425.306C1148.86 416.703 1144.16 411.541 1136.31 411.541C1128.29 411.541 1122.67 416.912 1122.67 426.229ZM1180.57 488.173C1176.42 488.173 1172.72 487.418 1170.67 486.579L1174.19 474.744C1180.82 476.674 1185.27 476.171 1188.08 468.826L1189.38 465.343L1166.01 399.538H1182.12L1196.98 448.22H1197.65L1212.55 399.538L1228.79 399.622L1202.9 471.806C1199.25 482.088 1192.41 488.173 1180.57 488.173Z" fill="white"/>
</svg>
